<?xml version="1.0" encoding="UTF-8"?>
<svg version="1.1" xmlns="http://www.w3.org/2000/svg" width="175" height="175">
<path d="M0 0 C0.9245549 -0.00570007 1.8491098 -0.01140015 2.80168152 -0.01727295 C4.76971283 -0.02674712 6.73776018 -0.03326646 8.70581055 -0.03710938 C11.67982062 -0.04671147 14.65310857 -0.0776672 17.62695312 -0.109375 C38.82623192 -0.22999933 38.82623192 -0.22999933 45.91796875 3.203125 C46.41296875 4.688125 46.41296875 4.688125 46.91796875 6.203125 C49.22796875 6.203125 51.53796875 6.203125 53.91796875 6.203125 C54.41296875 7.193125 54.41296875 7.193125 54.91796875 8.203125 C56.9082946 9.14546005 58.93583904 10.01027312 60.98046875 10.828125 C62.08519531 11.27414063 63.18992187 11.72015625 64.328125 12.1796875 C65.18277344 12.51742187 66.03742188 12.85515625 66.91796875 13.203125 C66.91796875 13.863125 66.91796875 14.523125 66.91796875 15.203125 C67.53671875 15.3475 68.15546875 15.491875 68.79296875 15.640625 C70.91796875 16.203125 70.91796875 16.203125 72.91796875 17.203125 C72.91796875 18.193125 72.91796875 19.183125 72.91796875 20.203125 C74.23796875 20.533125 75.55796875 20.863125 76.91796875 21.203125 C76.91796875 22.193125 76.91796875 23.183125 76.91796875 24.203125 C77.57796875 24.203125 78.23796875 24.203125 78.91796875 24.203125 C81.2463166 28.8598207 80.46199146 35.14897853 79.91796875 40.203125 C78.50811337 42.80906707 77.44296083 43.54032534 74.91796875 45.203125 C74.58796875 45.533125 74.25796875 45.863125 73.91796875 46.203125 C72.34795159 46.30773647 70.77324849 46.34275978 69.19976807 46.35029602 C67.66875458 46.36102898 67.66875458 46.36102898 66.10681152 46.37197876 C64.97747192 46.37466766 63.84813232 46.37735657 62.68457031 46.38012695 C61.50252014 46.38669815 60.32046997 46.39326935 59.1026001 46.40003967 C55.85035987 46.41641248 52.59815338 46.4280087 49.34588337 46.4362452 C47.31444606 46.44139142 45.28301335 46.44746741 43.25157928 46.45375633 C36.89720416 46.47281759 30.5428407 46.48704522 24.18844247 46.4953683 C16.85092054 46.50513721 9.51370056 46.53144335 2.17628503 46.57186919 C-3.49255879 46.60203071 -9.16131608 46.61683729 -14.83023858 46.62014931 C-18.21697635 46.62250034 -21.60339189 46.63146632 -24.99004364 46.65661049 C-28.77062699 46.68087177 -32.55041787 46.68006012 -36.33105469 46.6730957 C-38.0129187 46.69231079 -38.0129187 46.69231079 -39.72875977 46.71191406 C-47.31036842 46.66089894 -47.31036842 46.66089894 -51.2809906 44.30540466 C-53.32875727 41.915132 -53.6811058 40.97721244 -53.5703125 37.875 C-53.55419922 37.07578125 -53.53808594 36.2765625 -53.52148438 35.453125 C-53.47958984 34.628125 -53.43769531 33.803125 -53.39453125 32.953125 C-53.37197266 32.11265625 -53.34941406 31.2721875 -53.32617188 30.40625 C-53.26740839 28.33777536 -53.1777301 26.27022012 -53.08203125 24.203125 C-52.42203125 24.203125 -51.76203125 24.203125 -51.08203125 24.203125 C-51.08203125 23.213125 -51.08203125 22.223125 -51.08203125 21.203125 C-49.26953125 19.015625 -49.26953125 19.015625 -47.08203125 17.203125 C-46.09203125 17.203125 -45.10203125 17.203125 -44.08203125 17.203125 C-44.08203125 16.543125 -44.08203125 15.883125 -44.08203125 15.203125 C-43.33953125 14.935 -42.59703125 14.666875 -41.83203125 14.390625 C-39.1167239 13.35077287 -39.1167239 13.35077287 -37.20703125 11.765625 C-32.70584877 8.455932 -25.76544399 5.203125 -20.08203125 5.203125 C-20.08203125 4.543125 -20.08203125 3.883125 -20.08203125 3.203125 C-19.37175781 3.07035156 -18.66148438 2.93757813 -17.9296875 2.80078125 C-17.01058594 2.62417969 -16.09148438 2.44757813 -15.14453125 2.265625 C-14.22800781 2.09160156 -13.31148437 1.91757813 -12.3671875 1.73828125 C-8.1200559 0.74365385 -4.6897056 0.02220029 0 0 Z " fill="#FEFEFE" transform="translate(73.08203125,106.796875)"/>
<path d="M0 0 C2.0345363 0.01607751 4.06708682 0.00010388 6.1015625 -0.01904297 C18.18331032 0.01691461 18.18331032 0.01691461 24.0390625 3.39111328 C24.0390625 4.38111328 24.0390625 5.37111328 24.0390625 6.39111328 C24.6371875 6.49423828 25.2353125 6.59736328 25.8515625 6.70361328 C28.35164536 7.48935361 29.41441332 8.36030181 31.0390625 10.39111328 C31.0390625 11.05111328 31.0390625 11.71111328 31.0390625 12.39111328 C31.6990625 12.39111328 32.3590625 12.39111328 33.0390625 12.39111328 C33.0390625 13.38111328 33.0390625 14.37111328 33.0390625 15.39111328 C34.0290625 15.39111328 35.0190625 15.39111328 36.0390625 15.39111328 C40.20148721 23.53581219 40.65056573 30.85005985 40.5390625 39.89111328 C40.56226562 41.7725 40.56226562 41.7725 40.5859375 43.69189453 C40.55452079 51.19263425 39.93415015 57.82221779 36.0390625 64.39111328 C35.0490625 64.88611328 35.0490625 64.88611328 34.0390625 65.39111328 C33.5440625 66.87611328 33.5440625 66.87611328 33.0390625 68.39111328 C32.3790625 68.39111328 31.7190625 68.39111328 31.0390625 68.39111328 C30.0490625 70.37111328 30.0490625 70.37111328 29.0390625 72.39111328 C28.3790625 72.39111328 27.7190625 72.39111328 27.0390625 72.39111328 C27.0390625 73.05111328 27.0390625 73.71111328 27.0390625 74.39111328 C26.0490625 74.39111328 25.0590625 74.39111328 24.0390625 74.39111328 C23.5440625 75.87611328 23.5440625 75.87611328 23.0390625 77.39111328 C13.08586373 83.04892018 -0.64585675 83.00531302 -11.58984375 80.59033203 C-14.24004106 79.69541534 -16.60128283 78.89225529 -18.9609375 77.39111328 C-19.2909375 76.40111328 -19.6209375 75.41111328 -19.9609375 74.39111328 C-20.6003125 74.26736328 -21.2396875 74.14361328 -21.8984375 74.01611328 C-22.919375 73.70673828 -22.919375 73.70673828 -23.9609375 73.39111328 C-25.2109375 70.82861328 -25.2109375 70.82861328 -25.9609375 68.39111328 C-26.9509375 68.39111328 -27.9409375 68.39111328 -28.9609375 68.39111328 C-34.24212718 62.7898515 -35.27093601 57.7511432 -35.26171875 50.23876953 C-35.26600388 49.46101669 -35.270289 48.68326385 -35.27470398 47.88194275 C-35.2804293 46.2421872 -35.28096082 44.60240626 -35.27661133 42.96264648 C-35.27345197 40.4650506 -35.29692954 37.96864102 -35.32226562 35.47119141 C-35.324539 33.8728856 -35.32524193 32.27457663 -35.32421875 30.67626953 C-35.3334285 29.93546646 -35.34263824 29.19466339 -35.35212708 28.43141174 C-35.28571388 20.92349977 -32.3608939 16.45506488 -27.4609375 11.01611328 C-26.30078125 9.70513672 -26.30078125 9.70513672 -25.1171875 8.36767578 C-22.9609375 6.39111328 -22.9609375 6.39111328 -19.9609375 6.39111328 C-19.9609375 5.40111328 -19.9609375 4.41111328 -19.9609375 3.39111328 C-13.55924705 -0.29766567 -7.25988941 -0.06832425 0 0 Z " fill="#FEFEFE" transform="translate(83.9609375,13.60888671875)"/>
</svg>
