<?xml version="1.0" encoding="UTF-8"?>
<!DOCTYPE svg PUBLIC "-//W3C//DTD SVG 1.1//EN" "http://www.w3.org/Graphics/SVG/1.1/DTD/svg11.dtd">
<svg xmlns="http://www.w3.org/2000/svg" version="1.1" width="150px" height="177px" style="shape-rendering:geometricPrecision; text-rendering:geometricPrecision; image-rendering:optimizeQuality; fill-rule:evenodd; clip-rule:evenodd" xmlns:xlink="http://www.w3.org/1999/xlink">
<g><path style="opacity:0.959" fill="#fbfdfb" d="M 59.5,-0.5 C 69.5,-0.5 79.5,-0.5 89.5,-0.5C 102.87,3.89752 109.204,13.2309 108.5,27.5C 118.839,27.3335 129.172,27.5002 139.5,28C 140.333,28.8333 141.167,29.6667 142,30.5C 142.498,33.8168 142.665,37.1501 142.5,40.5C 144.833,40.5 147.167,40.5 149.5,40.5C 149.5,45.1667 149.5,49.8333 149.5,54.5C 144.833,54.5 140.167,54.5 135.5,54.5C 135.667,90.5015 135.5,126.502 135,162.5C 132.313,169.019 127.813,173.686 121.5,176.5C 90.1667,176.5 58.8333,176.5 27.5,176.5C 21.1873,173.686 16.6873,169.019 14,162.5C 13.5,126.502 13.3333,90.5015 13.5,54.5C 8.83333,54.5 4.16667,54.5 -0.5,54.5C -0.5,49.8333 -0.5,45.1667 -0.5,40.5C 1.83333,40.5 4.16667,40.5 6.5,40.5C 6.33499,37.1501 6.50166,33.8168 7,30.5C 7.83333,29.6667 8.66667,28.8333 9.5,28C 19.828,27.5002 30.1613,27.3335 40.5,27.5C 39.7963,13.2309 46.1296,3.89752 59.5,-0.5 Z M 64.5,13.5 C 72.5607,13.1785 80.5607,13.6785 88.5,15C 92.8748,17.9265 94.8748,22.0932 94.5,27.5C 81.1667,27.5 67.8333,27.5 54.5,27.5C 53.9755,19.8288 57.3088,15.1621 64.5,13.5 Z M 26.5,54.5 C 58.1667,54.5 89.8333,54.5 121.5,54.5C 121.667,89.5016 121.5,124.502 121,159.5C 120.167,160.333 119.333,161.167 118.5,162C 89.1667,162.667 59.8333,162.667 30.5,162C 29.6667,161.167 28.8333,160.333 28,159.5C 26.6028,124.519 26.1028,89.5189 26.5,54.5 Z"/></g>
<g><path style="opacity:0.901" fill="#fbfdfb" d="M 40.5,67.5 C 45.1667,67.5 49.8333,67.5 54.5,67.5C 54.5,94.8333 54.5,122.167 54.5,149.5C 49.8333,149.5 45.1667,149.5 40.5,149.5C 40.5,122.167 40.5,94.8333 40.5,67.5 Z"/></g>
<g><path style="opacity:0.901" fill="#fcfefc" d="M 67.5,67.5 C 72.1667,67.5 76.8333,67.5 81.5,67.5C 81.5,94.8333 81.5,122.167 81.5,149.5C 76.8333,149.5 72.1667,149.5 67.5,149.5C 67.5,122.167 67.5,94.8333 67.5,67.5 Z"/></g>
<g><path style="opacity:0.901" fill="#fbfdfb" d="M 94.5,67.5 C 99.1667,67.5 103.833,67.5 108.5,67.5C 108.5,94.8333 108.5,122.167 108.5,149.5C 103.833,149.5 99.1667,149.5 94.5,149.5C 94.5,122.167 94.5,94.8333 94.5,67.5 Z"/></g>
</svg>
